<svg xmlns="http://www.w3.org/2000/svg" xmlns:xlink="http://www.w3.org/1999/xlink"  zoomAndPan="magnify" viewBox="0 0 375 116"  preserveAspectRatio="xMidYMid meet" version="1.0"><defs><g/><clipPath id="f4dd6bfe8b"><rect x="0" width="184" y="0" height="28"/></clipPath><clipPath id="d0393938d3"><path d="M 0 0.160156 L 208 0.160156 L 208 115.601562 L 0 115.601562 Z M 0 0.160156 " clip-rule="nonzero"/></clipPath><clipPath id="7372176e1b"><rect x="0" width="208" y="0" height="116"/></clipPath><clipPath id="8e45980667"><path d="M 75 1 L 143 1 L 143 98 L 75 98 Z M 75 1 " clip-rule="nonzero"/></clipPath><clipPath id="f5e2a7d002"><path d="M 128.980469 1 L 142.390625 9.09375 L 88.847656 97.808594 L 75.4375 89.71875 Z M 128.980469 1 " clip-rule="nonzero"/></clipPath><clipPath id="bc4ef66d09"><path d="M 0.359375 0 L 67.558594 0 L 67.558594 96.839844 L 0.359375 96.839844 Z M 0.359375 0 " clip-rule="nonzero"/></clipPath><clipPath id="ea2393c551"><path d="M 53.980469 0 L 67.390625 8.09375 L 13.847656 96.808594 L 0.4375 88.71875 Z M 53.980469 0 " clip-rule="nonzero"/></clipPath><clipPath id="982ca84a59"><rect x="0" width="68" y="0" height="97"/></clipPath><clipPath id="de486a27ef"><path d="M 63 0.160156 L 149 0.160156 L 149 111 L 63 111 Z M 63 0.160156 " clip-rule="nonzero"/></clipPath><clipPath id="ad64658fec"><rect x="0" width="375" y="0" height="116"/></clipPath></defs><g transform="matrix(1, 0, 0, 1, 0, 14)"><g clip-path="url(#ad64658fec)"><g transform="matrix(1, 0, 0, 1, 191, 67)"><g clip-path="url(#f4dd6bfe8b)"><g fill="#3d3b3a" fill-opacity="1"><g transform="translate(0.930509, 21.162193)"><g><path d="M 4.140625 -13.3125 C 3.222656 -13.3125 2.53125 -13.078125 2.0625 -12.609375 C 1.601562 -12.140625 1.273438 -11.34375 1.078125 -10.21875 C 1.078125 -10.1875 1.035156 -10.171875 0.953125 -10.171875 C 0.867188 -10.171875 0.828125 -10.1875 0.828125 -10.21875 C 0.890625 -10.75 0.957031 -11.4375 1.03125 -12.28125 C 1.101562 -13.132812 1.140625 -13.769531 1.140625 -14.1875 C 1.140625 -14.257812 1.175781 -14.296875 1.25 -14.296875 C 1.332031 -14.296875 1.375 -14.257812 1.375 -14.1875 C 1.375 -13.875 1.769531 -13.71875 2.5625 -13.71875 C 3.8125 -13.664062 5.28125 -13.640625 6.96875 -13.640625 C 7.832031 -13.640625 8.75 -13.65625 9.71875 -13.6875 L 11.203125 -13.71875 C 11.734375 -13.71875 12.125 -13.753906 12.375 -13.828125 C 12.632812 -13.898438 12.800781 -14.046875 12.875 -14.265625 C 12.894531 -14.316406 12.941406 -14.34375 13.015625 -14.34375 C 13.085938 -14.34375 13.125 -14.316406 13.125 -14.265625 C 13.070312 -13.835938 13.023438 -13.191406 12.984375 -12.328125 C 12.941406 -11.460938 12.921875 -10.757812 12.921875 -10.21875 C 12.921875 -10.1875 12.875 -10.171875 12.78125 -10.171875 C 12.695312 -10.171875 12.65625 -10.1875 12.65625 -10.21875 C 12.613281 -11.363281 12.378906 -12.164062 11.953125 -12.625 C 11.523438 -13.082031 10.820312 -13.3125 9.84375 -13.3125 C 9.1875 -13.3125 8.71875 -13.28125 8.4375 -13.21875 C 8.164062 -13.164062 7.976562 -13.039062 7.875 -12.84375 C 7.769531 -12.65625 7.71875 -12.335938 7.71875 -11.890625 L 7.71875 -1.78125 C 7.71875 -1.320312 7.769531 -0.988281 7.875 -0.78125 C 7.976562 -0.582031 8.175781 -0.445312 8.46875 -0.375 C 8.757812 -0.300781 9.21875 -0.265625 9.84375 -0.265625 C 9.894531 -0.265625 9.921875 -0.21875 9.921875 -0.125 C 9.921875 -0.0390625 9.894531 0 9.84375 0 C 9.363281 0 8.976562 -0.00390625 8.6875 -0.015625 L 6.96875 -0.046875 L 5.328125 -0.015625 C 5.035156 -0.00390625 4.632812 0 4.125 0 C 4.09375 0 4.078125 -0.0390625 4.078125 -0.125 C 4.078125 -0.21875 4.09375 -0.265625 4.125 -0.265625 C 4.75 -0.265625 5.207031 -0.300781 5.5 -0.375 C 5.789062 -0.445312 5.992188 -0.585938 6.109375 -0.796875 C 6.222656 -1.015625 6.28125 -1.34375 6.28125 -1.78125 L 6.28125 -11.9375 C 6.28125 -12.382812 6.226562 -12.695312 6.125 -12.875 C 6.019531 -13.0625 5.828125 -13.179688 5.546875 -13.234375 C 5.273438 -13.285156 4.804688 -13.3125 4.140625 -13.3125 Z M 4.140625 -13.3125 "/></g></g></g><g fill="#3d3b3a" fill-opacity="1"><g transform="translate(23.613817, 21.162193)"><g><path d="M 14.984375 -0.265625 C 15.015625 -0.265625 15.03125 -0.21875 15.03125 -0.125 C 15.03125 -0.0390625 15.015625 0 14.984375 0 L 12.15625 0 C 11.789062 0 11.101562 -0.601562 10.09375 -1.8125 C 9.082031 -3.03125 7.882812 -4.703125 6.5 -6.828125 C 6.101562 -6.734375 5.691406 -6.6875 5.265625 -6.6875 C 5.179688 -6.6875 4.851562 -6.707031 4.28125 -6.75 L 4.28125 -1.78125 C 4.28125 -1.320312 4.320312 -0.988281 4.40625 -0.78125 C 4.5 -0.582031 4.671875 -0.445312 4.921875 -0.375 C 5.179688 -0.300781 5.585938 -0.265625 6.140625 -0.265625 C 6.179688 -0.265625 6.203125 -0.21875 6.203125 -0.125 C 6.203125 -0.0390625 6.179688 0 6.140625 0 C 5.691406 0 5.332031 -0.00390625 5.0625 -0.015625 L 3.546875 -0.046875 L 2.0625 -0.015625 C 1.800781 -0.00390625 1.425781 0 0.9375 0 C 0.914062 0 0.90625 -0.0390625 0.90625 -0.125 C 0.90625 -0.21875 0.914062 -0.265625 0.9375 -0.265625 C 1.5 -0.265625 1.910156 -0.300781 2.171875 -0.375 C 2.429688 -0.445312 2.609375 -0.585938 2.703125 -0.796875 C 2.804688 -1.015625 2.859375 -1.34375 2.859375 -1.78125 L 2.859375 -11.9375 C 2.859375 -12.375 2.8125 -12.691406 2.71875 -12.890625 C 2.632812 -13.097656 2.460938 -13.242188 2.203125 -13.328125 C 1.953125 -13.410156 1.546875 -13.453125 0.984375 -13.453125 C 0.941406 -13.453125 0.921875 -13.492188 0.921875 -13.578125 C 0.921875 -13.671875 0.941406 -13.71875 0.984375 -13.71875 L 2.0625 -13.6875 C 2.675781 -13.65625 3.171875 -13.640625 3.546875 -13.640625 C 3.867188 -13.640625 4.171875 -13.644531 4.453125 -13.65625 C 4.734375 -13.675781 4.96875 -13.695312 5.15625 -13.71875 C 5.695312 -13.757812 6.1875 -13.78125 6.625 -13.78125 C 7.78125 -13.78125 8.671875 -13.515625 9.296875 -12.984375 C 9.929688 -12.460938 10.25 -11.757812 10.25 -10.875 C 10.25 -10.09375 10.015625 -9.378906 9.546875 -8.734375 C 9.085938 -8.097656 8.476562 -7.597656 7.71875 -7.234375 C 8.945312 -5.460938 9.984375 -4.078125 10.828125 -3.078125 C 11.671875 -2.078125 12.414062 -1.359375 13.0625 -0.921875 C 13.71875 -0.484375 14.359375 -0.265625 14.984375 -0.265625 Z M 4.28125 -7.28125 C 4.644531 -7.226562 5.078125 -7.203125 5.578125 -7.203125 C 6.710938 -7.203125 7.523438 -7.445312 8.015625 -7.9375 C 8.503906 -8.4375 8.75 -9.207031 8.75 -10.25 C 8.75 -11.382812 8.492188 -12.203125 7.984375 -12.703125 C 7.484375 -13.203125 6.753906 -13.453125 5.796875 -13.453125 C 5.222656 -13.453125 4.828125 -13.347656 4.609375 -13.140625 C 4.390625 -12.929688 4.28125 -12.515625 4.28125 -11.890625 Z M 4.28125 -7.28125 "/></g></g></g><g fill="#3d3b3a" fill-opacity="1"><g transform="translate(47.15251, 21.162193)"><g><path d="M 10.421875 -3.265625 C 10.421875 -3.296875 10.453125 -3.3125 10.515625 -3.3125 C 10.554688 -3.3125 10.59375 -3.300781 10.625 -3.28125 C 10.664062 -3.269531 10.6875 -3.25 10.6875 -3.21875 C 10.550781 -2.300781 10.484375 -1.335938 10.484375 -0.328125 C 10.484375 -0.210938 10.457031 -0.128906 10.40625 -0.078125 C 10.351562 -0.0234375 10.265625 0 10.140625 0 L 0.9375 0 C 0.914062 0 0.90625 -0.0390625 0.90625 -0.125 C 0.90625 -0.21875 0.914062 -0.265625 0.9375 -0.265625 C 1.5 -0.265625 1.90625 -0.300781 2.15625 -0.375 C 2.414062 -0.445312 2.59375 -0.585938 2.6875 -0.796875 C 2.78125 -1.015625 2.828125 -1.34375 2.828125 -1.78125 L 2.828125 -11.9375 C 2.828125 -12.375 2.78125 -12.691406 2.6875 -12.890625 C 2.59375 -13.097656 2.414062 -13.242188 2.15625 -13.328125 C 1.90625 -13.410156 1.5 -13.453125 0.9375 -13.453125 C 0.914062 -13.453125 0.90625 -13.492188 0.90625 -13.578125 C 0.90625 -13.671875 0.914062 -13.71875 0.9375 -13.71875 L 9.765625 -13.71875 C 9.890625 -13.71875 9.953125 -13.648438 9.953125 -13.515625 L 10 -10.8125 C 10 -10.769531 9.960938 -10.742188 9.890625 -10.734375 C 9.816406 -10.734375 9.773438 -10.753906 9.765625 -10.796875 C 9.722656 -11.566406 9.488281 -12.164062 9.0625 -12.59375 C 8.632812 -13.03125 8.070312 -13.25 7.375 -13.25 L 6.03125 -13.25 C 5.519531 -13.25 5.144531 -13.207031 4.90625 -13.125 C 4.664062 -13.050781 4.492188 -12.914062 4.390625 -12.71875 C 4.296875 -12.519531 4.25 -12.222656 4.25 -11.828125 L 4.25 -7.375 L 6.9375 -7.375 C 7.632812 -7.375 8.132812 -7.488281 8.4375 -7.71875 C 8.738281 -7.957031 8.890625 -8.351562 8.890625 -8.90625 C 8.890625 -8.9375 8.929688 -8.953125 9.015625 -8.953125 C 9.097656 -8.953125 9.140625 -8.9375 9.140625 -8.90625 L 9.125 -7.125 C 9.125 -6.707031 9.128906 -6.390625 9.140625 -6.171875 L 9.171875 -5.109375 C 9.171875 -5.078125 9.125 -5.0625 9.03125 -5.0625 C 8.945312 -5.0625 8.90625 -5.078125 8.90625 -5.109375 C 8.90625 -5.753906 8.75 -6.210938 8.4375 -6.484375 C 8.125 -6.765625 7.597656 -6.90625 6.859375 -6.90625 L 4.25 -6.90625 L 4.25 -1.859375 C 4.25 -1.453125 4.289062 -1.15625 4.375 -0.96875 C 4.46875 -0.78125 4.628906 -0.644531 4.859375 -0.5625 C 5.097656 -0.488281 5.46875 -0.453125 5.96875 -0.453125 L 7.71875 -0.453125 C 8.425781 -0.453125 9.007812 -0.703125 9.46875 -1.203125 C 9.9375 -1.703125 10.253906 -2.390625 10.421875 -3.265625 Z M 10.421875 -3.265625 "/></g></g></g><g fill="#3d3b3a" fill-opacity="1"><g transform="translate(67.708314, 21.162193)"><g><path d="M 12.546875 -11.296875 C 12.546875 -12.734375 11.910156 -13.453125 10.640625 -13.453125 C 10.597656 -13.453125 10.578125 -13.492188 10.578125 -13.578125 C 10.578125 -13.671875 10.597656 -13.71875 10.640625 -13.71875 L 11.578125 -13.6875 C 12.109375 -13.65625 12.523438 -13.640625 12.828125 -13.640625 C 13.078125 -13.640625 13.4375 -13.65625 13.90625 -13.6875 L 14.828125 -13.71875 C 14.859375 -13.71875 14.875 -13.671875 14.875 -13.578125 C 14.875 -13.492188 14.859375 -13.453125 14.828125 -13.453125 C 13.660156 -13.453125 13.078125 -12.734375 13.078125 -11.296875 L 13.078125 -5.0625 C 13.078125 -3.382812 12.609375 -2.070312 11.671875 -1.125 C 10.734375 -0.1875 9.472656 0.28125 7.890625 0.28125 C 6.816406 0.28125 5.875 0.0703125 5.0625 -0.34375 C 4.25 -0.769531 3.617188 -1.375 3.171875 -2.15625 C 2.722656 -2.9375 2.5 -3.851562 2.5 -4.90625 L 2.5 -11.9375 C 2.5 -12.375 2.453125 -12.691406 2.359375 -12.890625 C 2.273438 -13.097656 2.101562 -13.242188 1.84375 -13.328125 C 1.59375 -13.410156 1.191406 -13.453125 0.640625 -13.453125 C 0.609375 -13.453125 0.59375 -13.492188 0.59375 -13.578125 C 0.59375 -13.671875 0.609375 -13.71875 0.640625 -13.71875 L 1.71875 -13.6875 C 2.320312 -13.65625 2.816406 -13.640625 3.203125 -13.640625 C 3.609375 -13.640625 4.117188 -13.65625 4.734375 -13.6875 L 5.796875 -13.71875 C 5.835938 -13.71875 5.859375 -13.671875 5.859375 -13.578125 C 5.859375 -13.492188 5.835938 -13.453125 5.796875 -13.453125 C 5.253906 -13.453125 4.847656 -13.40625 4.578125 -13.3125 C 4.316406 -13.226562 4.140625 -13.078125 4.046875 -12.859375 C 3.960938 -12.648438 3.921875 -12.328125 3.921875 -11.890625 L 3.921875 -5.6875 C 3.921875 -3.96875 4.3125 -2.648438 5.09375 -1.734375 C 5.882812 -0.828125 6.976562 -0.375 8.375 -0.375 C 9.695312 -0.375 10.722656 -0.785156 11.453125 -1.609375 C 12.179688 -2.441406 12.546875 -3.585938 12.546875 -5.046875 Z M 12.546875 -11.296875 "/></g></g></g><g fill="#3d3b3a" fill-opacity="1"><g transform="translate(91.795339, 21.162193)"><g><path d="M 15.84375 -0.265625 C 15.882812 -0.265625 15.90625 -0.21875 15.90625 -0.125 C 15.90625 -0.0390625 15.882812 0 15.84375 0 C 15.382812 0 15.023438 -0.00390625 14.765625 -0.015625 L 13.25 -0.046875 L 11.625 -0.015625 C 11.375 -0.00390625 11.03125 0 10.59375 0 C 10.550781 0 10.53125 -0.0390625 10.53125 -0.125 C 10.53125 -0.21875 10.550781 -0.265625 10.59375 -0.265625 C 11.164062 -0.265625 11.582031 -0.300781 11.84375 -0.375 C 12.101562 -0.445312 12.28125 -0.585938 12.375 -0.796875 C 12.476562 -1.015625 12.53125 -1.34375 12.53125 -1.78125 L 12.53125 -6.90625 L 4.109375 -6.90625 L 4.109375 -1.78125 C 4.109375 -1.34375 4.15625 -1.015625 4.25 -0.796875 C 4.34375 -0.585938 4.519531 -0.445312 4.78125 -0.375 C 5.039062 -0.300781 5.457031 -0.265625 6.03125 -0.265625 C 6.0625 -0.265625 6.078125 -0.21875 6.078125 -0.125 C 6.078125 -0.0390625 6.0625 0 6.03125 0 C 5.582031 0 5.222656 -0.00390625 4.953125 -0.015625 L 3.375 -0.046875 L 1.859375 -0.015625 C 1.597656 -0.00390625 1.234375 0 0.765625 0 C 0.734375 0 0.71875 -0.0390625 0.71875 -0.125 C 0.71875 -0.21875 0.734375 -0.265625 0.765625 -0.265625 C 1.316406 -0.265625 1.726562 -0.300781 2 -0.375 C 2.269531 -0.445312 2.453125 -0.585938 2.546875 -0.796875 C 2.648438 -1.015625 2.703125 -1.34375 2.703125 -1.78125 L 2.703125 -11.9375 C 2.703125 -12.375 2.648438 -12.691406 2.546875 -12.890625 C 2.453125 -13.097656 2.273438 -13.242188 2.015625 -13.328125 C 1.753906 -13.410156 1.347656 -13.453125 0.796875 -13.453125 C 0.765625 -13.453125 0.75 -13.492188 0.75 -13.578125 C 0.75 -13.671875 0.765625 -13.71875 0.796875 -13.71875 L 1.90625 -13.6875 C 2.519531 -13.65625 3.007812 -13.640625 3.375 -13.640625 C 3.800781 -13.640625 4.335938 -13.65625 4.984375 -13.6875 L 6.03125 -13.71875 C 6.0625 -13.71875 6.078125 -13.671875 6.078125 -13.578125 C 6.078125 -13.492188 6.0625 -13.453125 6.03125 -13.453125 C 5.476562 -13.453125 5.066406 -13.40625 4.796875 -13.3125 C 4.523438 -13.226562 4.34375 -13.078125 4.25 -12.859375 C 4.15625 -12.648438 4.109375 -12.328125 4.109375 -11.890625 L 4.109375 -7.375 L 12.53125 -7.375 L 12.53125 -11.890625 C 12.53125 -12.328125 12.476562 -12.648438 12.375 -12.859375 C 12.28125 -13.078125 12.101562 -13.226562 11.84375 -13.3125 C 11.582031 -13.40625 11.164062 -13.453125 10.59375 -13.453125 C 10.550781 -13.453125 10.53125 -13.492188 10.53125 -13.578125 C 10.53125 -13.671875 10.550781 -13.71875 10.59375 -13.71875 L 11.625 -13.6875 C 12.269531 -13.65625 12.8125 -13.640625 13.25 -13.640625 C 13.644531 -13.640625 14.148438 -13.65625 14.765625 -13.6875 L 15.84375 -13.71875 C 15.882812 -13.71875 15.90625 -13.671875 15.90625 -13.578125 C 15.90625 -13.492188 15.882812 -13.453125 15.84375 -13.453125 C 15.28125 -13.453125 14.867188 -13.410156 14.609375 -13.328125 C 14.347656 -13.242188 14.171875 -13.097656 14.078125 -12.890625 C 13.984375 -12.691406 13.9375 -12.375 13.9375 -11.9375 L 13.9375 -1.78125 C 13.9375 -1.34375 13.984375 -1.015625 14.078125 -0.796875 C 14.171875 -0.585938 14.347656 -0.445312 14.609375 -0.375 C 14.867188 -0.300781 15.28125 -0.265625 15.84375 -0.265625 Z M 15.84375 -0.265625 "/></g></g></g><g fill="#3d3b3a" fill-opacity="1"><g transform="translate(117.220281, 21.162193)"><g><path d="M 15.328125 -0.265625 C 15.390625 -0.265625 15.421875 -0.21875 15.421875 -0.125 C 15.421875 -0.0390625 15.390625 0 15.328125 0 C 15.054688 0 14.628906 -0.015625 14.046875 -0.046875 C 13.453125 -0.078125 13.023438 -0.09375 12.765625 -0.09375 C 12.441406 -0.09375 12.035156 -0.078125 11.546875 -0.046875 C 11.078125 -0.015625 10.71875 0 10.46875 0 C 10.40625 0 10.375 -0.0390625 10.375 -0.125 C 10.375 -0.21875 10.40625 -0.265625 10.46875 -0.265625 C 11.007812 -0.265625 11.398438 -0.316406 11.640625 -0.421875 C 11.890625 -0.523438 12.015625 -0.695312 12.015625 -0.9375 C 12.015625 -1.144531 11.921875 -1.460938 11.734375 -1.890625 L 9.78125 -6.03125 L 4.5625 -6.03125 L 3.1875 -2.78125 C 2.976562 -2.289062 2.875 -1.890625 2.875 -1.578125 C 2.875 -1.128906 3.050781 -0.796875 3.40625 -0.578125 C 3.769531 -0.367188 4.3125 -0.265625 5.03125 -0.265625 C 5.101562 -0.265625 5.140625 -0.21875 5.140625 -0.125 C 5.140625 -0.0390625 5.101562 0 5.03125 0 C 4.757812 0 4.378906 -0.015625 3.890625 -0.046875 C 3.328125 -0.078125 2.84375 -0.09375 2.4375 -0.09375 C 2.050781 -0.09375 1.613281 -0.078125 1.125 -0.046875 C 0.675781 -0.015625 0.304688 0 0.015625 0 C -0.0546875 0 -0.09375 -0.0390625 -0.09375 -0.125 C -0.09375 -0.21875 -0.0546875 -0.265625 0.015625 -0.265625 C 0.429688 -0.265625 0.78125 -0.335938 1.0625 -0.484375 C 1.34375 -0.640625 1.613281 -0.910156 1.875 -1.296875 C 2.132812 -1.691406 2.414062 -2.253906 2.71875 -2.984375 L 7.34375 -13.90625 C 7.375 -13.945312 7.425781 -13.96875 7.5 -13.96875 C 7.570312 -13.96875 7.617188 -13.945312 7.640625 -13.90625 L 12.8125 -3 C 13.3125 -1.914062 13.734375 -1.1875 14.078125 -0.8125 C 14.429688 -0.445312 14.847656 -0.265625 15.328125 -0.265625 Z M 4.734375 -6.46875 L 9.59375 -6.46875 L 7.015625 -11.890625 Z M 4.734375 -6.46875 "/></g></g></g><g fill="#3d3b3a" fill-opacity="1"><g transform="translate(141.395038, 21.162193)"><g><path d="M 15.4375 -13.71875 C 15.488281 -13.71875 15.515625 -13.671875 15.515625 -13.578125 C 15.515625 -13.492188 15.488281 -13.453125 15.4375 -13.453125 C 14.820312 -13.453125 14.375 -13.28125 14.09375 -12.9375 C 13.820312 -12.601562 13.6875 -12.054688 13.6875 -11.296875 L 13.6875 0.265625 C 13.6875 0.296875 13.648438 0.316406 13.578125 0.328125 C 13.503906 0.335938 13.453125 0.332031 13.421875 0.3125 L 3.328125 -11.90625 L 3.140625 -12.125 L 3.140625 -2.390625 C 3.140625 -1.628906 3.273438 -1.082031 3.546875 -0.75 C 3.816406 -0.425781 4.25 -0.265625 4.84375 -0.265625 C 4.882812 -0.265625 4.90625 -0.21875 4.90625 -0.125 C 4.90625 -0.0390625 4.882812 0 4.84375 0 C 4.476562 0 4.203125 -0.00390625 4.015625 -0.015625 L 2.921875 -0.046875 L 1.796875 -0.015625 C 1.585938 -0.00390625 1.289062 0 0.90625 0 C 0.875 0 0.859375 -0.0390625 0.859375 -0.125 C 0.859375 -0.21875 0.875 -0.265625 0.90625 -0.265625 C 1.53125 -0.265625 1.972656 -0.425781 2.234375 -0.75 C 2.492188 -1.082031 2.625 -1.628906 2.625 -2.390625 L 2.625 -12.65625 C 2.0625 -13.1875 1.488281 -13.453125 0.90625 -13.453125 C 0.851562 -13.453125 0.828125 -13.492188 0.828125 -13.578125 C 0.828125 -13.671875 0.851562 -13.71875 0.90625 -13.71875 L 1.71875 -13.6875 C 1.882812 -13.675781 2.125 -13.671875 2.4375 -13.671875 C 2.757812 -13.671875 3.019531 -13.675781 3.21875 -13.6875 C 3.425781 -13.707031 3.585938 -13.71875 3.703125 -13.71875 C 3.828125 -13.71875 3.910156 -13.691406 3.953125 -13.640625 C 4.003906 -13.585938 4.09375 -13.472656 4.21875 -13.296875 C 4.382812 -13.035156 4.554688 -12.789062 4.734375 -12.5625 L 13.1875 -2.1875 L 13.1875 -11.296875 C 13.1875 -12.054688 13.054688 -12.601562 12.796875 -12.9375 C 12.546875 -13.28125 12.117188 -13.453125 11.515625 -13.453125 C 11.484375 -13.453125 11.46875 -13.492188 11.46875 -13.578125 C 11.46875 -13.671875 11.484375 -13.71875 11.515625 -13.71875 L 12.375 -13.6875 C 12.8125 -13.65625 13.171875 -13.640625 13.453125 -13.640625 C 13.710938 -13.640625 14.078125 -13.65625 14.546875 -13.6875 Z M 15.4375 -13.71875 "/></g></g></g><g fill="#3d3b3a" fill-opacity="1"><g transform="translate(166.118128, 21.162193)"><g><path d="M 6.640625 0.09375 C 6.222656 0.09375 5.734375 0.0664062 5.171875 0.015625 C 4.972656 0.00390625 4.710938 -0.00390625 4.390625 -0.015625 C 4.078125 -0.0351562 3.734375 -0.046875 3.359375 -0.046875 L 1.859375 -0.015625 C 1.597656 -0.00390625 1.234375 0 0.765625 0 C 0.734375 0 0.71875 -0.0390625 0.71875 -0.125 C 0.71875 -0.21875 0.734375 -0.265625 0.765625 -0.265625 C 1.316406 -0.265625 1.722656 -0.300781 1.984375 -0.375 C 2.242188 -0.445312 2.421875 -0.585938 2.515625 -0.796875 C 2.609375 -1.015625 2.65625 -1.34375 2.65625 -1.78125 L 2.65625 -11.9375 C 2.65625 -12.375 2.609375 -12.691406 2.515625 -12.890625 C 2.429688 -13.097656 2.257812 -13.242188 2 -13.328125 C 1.75 -13.410156 1.347656 -13.453125 0.796875 -13.453125 C 0.765625 -13.453125 0.75 -13.492188 0.75 -13.578125 C 0.75 -13.671875 0.765625 -13.71875 0.796875 -13.71875 L 1.890625 -13.6875 C 2.503906 -13.65625 2.992188 -13.640625 3.359375 -13.640625 C 3.910156 -13.640625 4.457031 -13.664062 5 -13.71875 C 5.644531 -13.738281 6.09375 -13.75 6.34375 -13.75 C 7.863281 -13.75 9.210938 -13.457031 10.390625 -12.875 C 11.566406 -12.289062 12.472656 -11.492188 13.109375 -10.484375 C 13.753906 -9.472656 14.078125 -8.335938 14.078125 -7.078125 C 14.078125 -5.660156 13.742188 -4.40625 13.078125 -3.3125 C 12.421875 -2.226562 11.519531 -1.390625 10.375 -0.796875 C 9.238281 -0.203125 7.992188 0.09375 6.640625 0.09375 Z M 6.421875 -0.234375 C 7.597656 -0.234375 8.640625 -0.476562 9.546875 -0.96875 C 10.453125 -1.46875 11.15625 -2.191406 11.65625 -3.140625 C 12.164062 -4.097656 12.421875 -5.253906 12.421875 -6.609375 C 12.421875 -7.878906 12.175781 -9.03125 11.6875 -10.0625 C 11.207031 -11.101562 10.519531 -11.921875 9.625 -12.515625 C 8.738281 -13.117188 7.707031 -13.421875 6.53125 -13.421875 C 5.90625 -13.421875 5.421875 -13.382812 5.078125 -13.3125 C 4.734375 -13.238281 4.476562 -13.09375 4.3125 -12.875 C 4.15625 -12.65625 4.078125 -12.328125 4.078125 -11.890625 L 4.078125 -2.015625 C 4.078125 -1.578125 4.140625 -1.234375 4.265625 -0.984375 C 4.390625 -0.734375 4.625 -0.546875 4.96875 -0.421875 C 5.3125 -0.296875 5.796875 -0.234375 6.421875 -0.234375 Z M 6.421875 -0.234375 "/></g></g></g></g></g><g clip-path="url(#d0393938d3)"><g transform="matrix(1, 0, 0, 1, 0, -0.000000000000008882)"><g clip-path="url(#7372176e1b)"><g fill="#3d3b3a" fill-opacity="1"><g transform="translate(-1.410446, 88.129353)"><g><path d="M 76.53125 -1.140625 C 76.726562 -1.140625 76.828125 -0.945312 76.828125 -0.5625 C 76.828125 -0.1875 76.726562 0 76.53125 0 C 74.570312 0 73.023438 -0.03125 71.890625 -0.09375 L 65.53125 -0.1875 L 59.65625 -0.09375 C 58.707031 -0.03125 57.378906 0 55.671875 0 C 55.546875 0 55.484375 -0.1875 55.484375 -0.5625 C 55.484375 -0.945312 55.546875 -1.140625 55.671875 -1.140625 C 57.890625 -1.140625 59.519531 -1.3125 60.5625 -1.65625 C 61.601562 -2.007812 62.296875 -2.628906 62.640625 -3.515625 C 62.992188 -4.398438 63.101562 -5.789062 62.96875 -7.6875 L 61.359375 -51.78125 L 39.171875 -0.65625 C 39.046875 -0.40625 38.789062 -0.28125 38.40625 -0.28125 C 38.09375 -0.28125 37.8125 -0.40625 37.5625 -0.65625 L 14.421875 -51.40625 L 14.328125 -51.59375 L 13.5625 -9.859375 C 13.5 -6.578125 14.035156 -4.300781 15.171875 -3.03125 C 16.304688 -1.769531 18.425781 -1.140625 21.53125 -1.140625 C 21.65625 -1.140625 21.71875 -0.945312 21.71875 -0.5625 C 21.71875 -0.1875 21.65625 0 21.53125 0 C 19.757812 0 18.398438 -0.03125 17.453125 -0.09375 L 12.328125 -0.1875 L 7.6875 -0.09375 C 6.863281 -0.03125 5.628906 0 3.984375 0 C 3.859375 0 3.796875 -0.1875 3.796875 -0.5625 C 3.796875 -0.945312 3.859375 -1.140625 3.984375 -1.140625 C 6.640625 -1.140625 8.519531 -1.785156 9.625 -3.078125 C 10.726562 -4.378906 11.3125 -6.640625 11.375 -9.859375 L 12.328125 -54.8125 C 10.367188 -57.03125 7.804688 -58.140625 4.640625 -58.140625 C 4.515625 -58.140625 4.453125 -58.328125 4.453125 -58.703125 C 4.453125 -59.085938 4.515625 -59.28125 4.640625 -59.28125 L 7.875 -59.1875 C 8.507812 -59.125 9.332031 -59.09375 10.34375 -59.09375 C 11.351562 -59.09375 12.203125 -59.125 12.890625 -59.1875 C 13.585938 -59.25 14.128906 -59.28125 14.515625 -59.28125 C 15.398438 -59.28125 16.09375 -58.976562 16.59375 -58.375 C 17.101562 -57.769531 17.863281 -56.425781 18.875 -54.34375 L 40.21875 -8.25 L 61.453125 -56.90625 C 61.773438 -57.601562 62.203125 -58.171875 62.734375 -58.609375 C 63.273438 -59.054688 63.796875 -59.28125 64.296875 -59.28125 C 64.554688 -59.28125 64.96875 -59.25 65.53125 -59.1875 C 66.101562 -59.125 66.894531 -59.09375 67.90625 -59.09375 L 72.171875 -59.1875 C 72.804688 -59.25 73.785156 -59.28125 75.109375 -59.28125 C 75.242188 -59.28125 75.3125 -59.085938 75.3125 -58.703125 C 75.3125 -58.328125 75.242188 -58.140625 75.109375 -58.140625 C 71.828125 -58.140625 69.503906 -57.710938 68.140625 -56.859375 C 66.785156 -56.003906 66.140625 -54.3125 66.203125 -51.78125 L 68 -7.6875 C 68.0625 -5.726562 68.296875 -4.304688 68.703125 -3.421875 C 69.117188 -2.535156 69.910156 -1.929688 71.078125 -1.609375 C 72.253906 -1.296875 74.070312 -1.140625 76.53125 -1.140625 Z M 76.53125 -1.140625 "/></g></g></g><g fill="#3d3b3a" fill-opacity="1"><g transform="translate(77.306595, 88.129353)"><g><path d="M 38.59375 -60.328125 C 42.769531 -60.328125 46.1875 -60.023438 48.84375 -59.421875 C 51.5 -58.816406 54.3125 -57.757812 57.28125 -56.25 C 57.664062 -55.988281 57.90625 -55.78125 58 -55.625 C 58.09375 -55.46875 58.171875 -54.976562 58.234375 -54.15625 L 59.375 -43.34375 C 59.375 -43.15625 59.195312 -43.046875 58.84375 -43.015625 C 58.5 -42.984375 58.296875 -43.0625 58.234375 -43.25 C 56.835938 -48.5 54.523438 -52.4375 51.296875 -55.0625 C 48.078125 -57.6875 43.84375 -59 38.59375 -59 C 33.03125 -59 28.144531 -57.828125 23.9375 -55.484375 C 19.738281 -53.140625 16.484375 -49.800781 14.171875 -45.46875 C 11.867188 -41.144531 10.71875 -36.101562 10.71875 -30.34375 C 10.71875 -24.96875 12 -19.957031 14.5625 -15.3125 C 17.125 -10.664062 20.566406 -6.96875 24.890625 -4.21875 C 29.222656 -1.46875 33.859375 -0.09375 38.796875 -0.09375 C 49.285156 -0.09375 55.984375 -5.242188 58.890625 -15.546875 C 58.890625 -15.679688 59.050781 -15.75 59.375 -15.75 C 59.8125 -15.75 60.03125 -15.648438 60.03125 -15.453125 L 59.28125 -5.40625 C 59.21875 -4.644531 59.117188 -4.171875 58.984375 -3.984375 C 58.859375 -3.796875 58.609375 -3.570312 58.234375 -3.3125 C 54.941406 -1.613281 51.859375 -0.429688 48.984375 0.234375 C 46.109375 0.898438 42.679688 1.234375 38.703125 1.234375 C 32.117188 1.234375 26.25 -0.078125 21.09375 -2.703125 C 15.945312 -5.328125 11.914062 -9.023438 9 -13.796875 C 6.09375 -18.566406 4.640625 -24.050781 4.640625 -30.25 C 4.640625 -36.195312 6.09375 -41.445312 9 -46 C 11.914062 -50.550781 15.945312 -54.078125 21.09375 -56.578125 C 26.25 -59.078125 32.082031 -60.328125 38.59375 -60.328125 Z M 38.59375 -60.328125 "/></g></g></g><g fill="#3d3b3a" fill-opacity="1"><g transform="translate(142.461549, 88.129353)"><g><path d="M 63.546875 -59.28125 C 63.734375 -59.28125 63.828125 -59.085938 63.828125 -58.703125 C 63.828125 -58.328125 63.734375 -58.140625 63.546875 -58.140625 C 61.398438 -58.140625 59.613281 -57.679688 58.1875 -56.765625 C 56.757812 -55.847656 55.507812 -54.125 54.4375 -51.59375 L 33.578125 -0.09375 C 33.515625 0.15625 33.164062 0.28125 32.53125 0.28125 C 32.019531 0.28125 31.671875 0.15625 31.484375 -0.09375 L 8.0625 -51.40625 C 6.988281 -53.875 5.832031 -55.613281 4.59375 -56.625 C 3.363281 -57.632812 1.769531 -58.140625 -0.1875 -58.140625 C -0.375 -58.140625 -0.46875 -58.328125 -0.46875 -58.703125 C -0.46875 -59.085938 -0.375 -59.28125 -0.1875 -59.28125 L 3.890625 -59.1875 C 5.660156 -59.0625 6.988281 -59 7.875 -59 C 9.707031 -59 11.890625 -59.0625 14.421875 -59.1875 L 18.5 -59.28125 C 18.6875 -59.28125 18.78125 -59.085938 18.78125 -58.703125 C 18.78125 -58.328125 18.6875 -58.140625 18.5 -58.140625 C 16.53125 -58.140625 15.054688 -57.914062 14.078125 -57.46875 C 13.097656 -57.03125 12.609375 -56.273438 12.609375 -55.203125 C 12.609375 -54.441406 12.894531 -53.492188 13.46875 -52.359375 L 34.140625 -6.734375 L 52.453125 -52.171875 C 52.890625 -53.242188 53.109375 -54.160156 53.109375 -54.921875 C 53.109375 -56.054688 52.523438 -56.875 51.359375 -57.375 C 50.191406 -57.882812 48.28125 -58.140625 45.625 -58.140625 C 45.425781 -58.140625 45.328125 -58.328125 45.328125 -58.703125 C 45.328125 -59.085938 45.425781 -59.28125 45.625 -59.28125 L 49.40625 -59.1875 C 51.5625 -59.0625 53.460938 -59 55.109375 -59 C 56.429688 -59 57.914062 -59.0625 59.5625 -59.1875 Z M 63.546875 -59.28125 "/></g></g></g></g></g></g><g clip-path="url(#8e45980667)"><g clip-path="url(#f5e2a7d002)"><g transform="matrix(1, 0, 0, 1, 75, 1)"><g clip-path="url(#982ca84a59)"><g clip-path="url(#bc4ef66d09)"><g clip-path="url(#ea2393c551)"><path fill="#f5f5f5" d="M 53.980469 0 L 67.390625 8.09375 L 13.839844 96.824219 L 0.429688 88.730469 Z M 53.980469 0 " fill-opacity="1" fill-rule="nonzero"/></g></g></g></g></g></g><g clip-path="url(#de486a27ef)"><path stroke-linecap="butt" transform="matrix(0.647956, -0.92259, 0.92259, 0.647956, 75.238549, 96.647978)" fill="none" stroke-linejoin="miter" d="M -0.00118391 0.999766 L 91.778804 0.999031 " stroke="#3d3b3a" stroke-width="2" stroke-opacity="1" stroke-miterlimit="4"/></g></g></g></svg>